<?xml version="1.0" encoding="utf-8"?>
<!-- Generator: Adobe Illustrator 25.2.3, SVG Export Plug-In . SVG Version: 6.00 Build 0)  -->
<svg version="1.1" id="Layer_1" xmlns="http://www.w3.org/2000/svg" xmlns:xlink="http://www.w3.org/1999/xlink" x="0px" y="0px"
	 viewBox="0 0 32 32" style="enable-background:new 0 0 32 32;" xml:space="preserve">
<style type="text/css">
	.st0{fill:#2F75B5;}
</style>
<path class="st0" d="M16,1.2l-0.8,1.2c0,0-0.5,0.8-1.1,1.7c-0.3,0.5-0.5,0.9-0.7,1.4C13.2,6,13,6.4,13,7c0,1.6,1.4,3,3,3s3-1.4,3-3
	c0-0.6-0.2-1-0.4-1.5s-0.5-1-0.7-1.4c-0.5-0.9-1.1-1.7-1.1-1.7L16,1.2z M16,10h-3v4H7c-2.2,0-4,1.8-4,4c0,1,0.4,1.9,1,2.7V28h24
	v-7.3c0.6-0.7,1-1.6,1-2.7c0-2.2-1.8-4-4-4h-6v-4H16z M16,4.9C16.1,5,16.1,5,16.1,5.1c0.2,0.4,0.5,0.8,0.7,1.2S17,7,17,7
	c0,0.6-0.4,1-1,1c-0.6,0-1-0.4-1-1c0,0,0.1-0.3,0.2-0.7c0.2-0.4,0.4-0.8,0.7-1.2C15.9,5,15.9,5,16,4.9z M15,12h2v2h-2V12z M7,16h18
	c1.2,0,2,0.8,2,2s-0.8,2-2,2s-2-0.8-2-2h-2c0,1.2-0.8,2-2,2s-2-0.8-2-2h-2c0,1.2-0.8,2-2,2s-2-0.8-2-2H9c0,1.2-0.8,2-2,2s-2-0.8-2-2
	S5.8,16,7,16z M10,20.7c0.7,0.8,1.8,1.3,3,1.3c1.2,0,2.3-0.5,3-1.3c0.7,0.8,1.8,1.3,3,1.3s2.3-0.5,3-1.3c0.7,0.8,1.8,1.3,3,1.3
	c0.3,0,0.7-0.1,1-0.2V26H6v-4.2C6.3,21.9,6.7,22,7,22C8.2,22,9.3,21.5,10,20.7z"/>
</svg>
