<?xml version="1.0" encoding="utf-8"?>
<!-- Generator: Adobe Illustrator 25.2.3, SVG Export Plug-In . SVG Version: 6.00 Build 0)  -->
<svg version="1.1" id="Layer_1" xmlns="http://www.w3.org/2000/svg" xmlns:xlink="http://www.w3.org/1999/xlink" x="0px" y="0px"
	 viewBox="0 0 32 37" style="enable-background:new 0 0 32 37;" xml:space="preserve">
<style type="text/css">
	.st0{fill:#FAEC33;}
	.st1{fill:#235786;stroke:#235786;stroke-width:0.25;}
	.st2{fill:#235786;}
</style>
<path class="st0" d="M27.7,6.3H21h-4.2v4.9v4.1H21v-4.1h6.7v7.5H15.5V0.6h0V0H4.3H0v4.9v9v4.9h4.3H5v-4.9H4.3v-9h6.9v13.8v4.9h4.3
	h12.1H32v-4.9v-7.5V6.3H27.7z"/>
<path class="st1" d="M22.2,18.6H22v0.1v6.2h-12V6.3V6.2H9.9H5.6H5.5v0.1v18.7v4.9v0.1h0.1h4.3h12.2h4.3h0.1v-0.1v-4.9v-6.3v-0.1
	h-0.1H22.2z"/>
<path class="st0" d="M20.8,31.5h-4.3v4.9h4.3V31.5z"/>
<path class="st2" d="M26.6,31.5h-4.3v4.9h4.3V31.5z"/>
</svg>
